<svg width="16" height="16" viewBox="0 0 16 16" fill="none" xmlns="http://www.w3.org/2000/svg">
<path fill-rule="evenodd" clip-rule="evenodd" d="M11.5999 6.5C11.7499 6.5 11.8199 6.68 11.7199 6.78L8.23986 10.26C8.20902 10.2927 8.17182 10.3187 8.13055 10.3365C8.08928 10.3543 8.04481 10.3635 7.99986 10.3635C7.95492 10.3635 7.91045 10.3543 7.86918 10.3365C7.82791 10.3187 7.79071 10.2927 7.75986 10.26L4.27986 6.78C4.25932 6.75589 4.24592 6.72653 4.24118 6.69521C4.23643 6.6639 4.24053 6.63188 4.253 6.60277C4.26548 6.57366 4.28584 6.54862 4.31179 6.53046C4.33774 6.5123 4.36824 6.50175 4.39986 6.5H11.5999Z" fill="black"/>
</svg>
