<svg width="72" height="72" viewBox="0 0 72 72" fill="none" xmlns="http://www.w3.org/2000/svg">
<path d="M35.9998 70.1969C54.8878 70.1969 70.1998 54.8859 70.1998 35.9969C70.1998 17.1109 54.8878 1.79688 35.9998 1.79688C17.1118 1.79688 1.7998 17.1109 1.7998 35.9969C1.7998 54.8869 17.1118 70.1969 35.9998 70.1969Z" fill="url(#paint0_radial_2287_1151)"/>
<path opacity="0.4" d="M64.7661 36.1912C65.5211 51.5882 53.7911 63.5782 38.5661 62.9732C23.3441 62.3682 10.3901 49.3962 9.63508 33.9992C8.88008 18.6022 20.6101 6.61224 35.8341 7.21724C51.0571 7.82224 64.0101 20.7942 64.7661 36.1912Z" fill="url(#paint1_radial_2287_1151)"/>
<path d="M62.3662 37.9959C63.1212 53.3919 51.3912 65.3829 36.1662 64.7779C20.9442 64.1729 7.99018 51.1999 7.23518 35.8039C6.48018 20.4079 18.2102 8.41692 33.4342 9.02192C48.6572 9.62692 61.6102 22.5989 62.3662 37.9959Z" fill="url(#paint2_radial_2287_1151)"/>
<path opacity="0.5" d="M64.7661 36.1912C65.5211 51.5882 53.7911 63.5782 38.5661 62.9732C23.3441 62.3682 10.3901 49.3962 9.63508 33.9992C8.88008 18.6022 20.6101 6.61224 35.8341 7.21724C51.0571 7.82224 64.0101 20.7942 64.7661 36.1912Z" fill="url(#paint3_radial_2287_1151)"/>
<path opacity="0.6" d="M36.9001 60.6C48.6641 60.6 58.2001 51.064 58.2001 39.3C58.2001 27.536 48.6641 18 36.9001 18C25.1361 18 15.6001 27.536 15.6001 39.3C15.6001 51.064 25.1361 60.6 36.9001 60.6Z" fill="url(#paint4_radial_2287_1151)"/>
<path fill-rule="evenodd" clip-rule="evenodd" d="M39.0852 42.2726L46.3392 35.7596L48.8952 38.5136L38.9122 47.4766L37.8472 48.4326L36.6072 47.4766L24.9902 38.5136L27.0432 35.7596L35.4852 42.2726L33.6002 21.6016H37.2002L39.0852 42.2726Z" fill="url(#paint5_radial_2287_1151)"/>
<path opacity="0.4" fill-rule="evenodd" clip-rule="evenodd" d="M61.657 34.9628C61.783 35.3898 62.391 35.3238 62.369 34.8788C61.696 21.1378 50.151 9.56081 36.582 9.02081C34.5322 8.93468 32.4799 9.11621 30.477 9.56081C30.075 9.65081 30.157 10.2088 30.57 10.2258C45.01 10.7988 57.625 21.2978 61.657 34.9628Z" fill="url(#paint6_radial_2287_1151)"/>
<defs>
<radialGradient id="paint0_radial_2287_1151" cx="0" cy="0" r="1" gradientUnits="userSpaceOnUse" gradientTransform="translate(35.9998 36.1809) rotate(-90) scale(34.3829)">
<stop offset="0.782" stop-color="#982DBE"/>
<stop offset="0.907" stop-color="#B038DC" stop-opacity="0.2"/>
<stop offset="1" stop-color="#E4A1FA" stop-opacity="0"/>
</radialGradient>
<radialGradient id="paint1_radial_2287_1151" cx="0" cy="0" r="1" gradientUnits="userSpaceOnUse" gradientTransform="translate(52.9935 20.0956) rotate(135) scale(49.9836)">
<stop stop-color="#FFDCCC"/>
<stop offset="0.333" stop-color="#FFBDC0"/>
<stop offset="0.667" stop-color="#F89DC6"/>
<stop offset="1" stop-color="#E4A1FA"/>
</radialGradient>
<radialGradient id="paint2_radial_2287_1151" cx="0" cy="0" r="1" gradientUnits="userSpaceOnUse" gradientTransform="translate(52.7996 19.6937) rotate(135) scale(53.1037)">
<stop stop-color="#FFA984"/>
<stop offset="0.333" stop-color="#FF787F"/>
<stop offset="0.667" stop-color="#F45FA2"/>
<stop offset="1" stop-color="#C44AF1"/>
</radialGradient>
<radialGradient id="paint3_radial_2287_1151" cx="0" cy="0" r="1" gradientUnits="userSpaceOnUse" gradientTransform="translate(52.9935 20.0956) rotate(135) scale(49.9836)">
<stop stop-color="#FFDCCC"/>
<stop offset="0.333" stop-color="#FFBDC0"/>
<stop offset="0.667" stop-color="#F89DC6"/>
<stop offset="1" stop-color="#E4A1FA"/>
</radialGradient>
<radialGradient id="paint4_radial_2287_1151" cx="0" cy="0" r="1" gradientUnits="userSpaceOnUse" gradientTransform="translate(36.9001 39.3) scale(21.3)">
<stop stop-color="white"/>
<stop offset="1" stop-color="white" stop-opacity="0"/>
</radialGradient>
<radialGradient id="paint5_radial_2287_1151" cx="0" cy="0" r="1" gradientUnits="userSpaceOnUse" gradientTransform="translate(31.2002 32.1012) rotate(39.523) scale(15.5567)">
<stop stop-color="#EF7744"/>
<stop offset="0.241" stop-color="#E50914"/>
<stop offset="1" stop-color="#792A95"/>
</radialGradient>
<radialGradient id="paint6_radial_2287_1151" cx="0" cy="0" r="1" gradientUnits="userSpaceOnUse" gradientTransform="translate(50.7 21.3008) rotate(180) scale(30 30)">
<stop stop-color="white"/>
<stop offset="1" stop-color="white" stop-opacity="0"/>
</radialGradient>
</defs>
</svg>
