<svg width="403" height="403" viewBox="0 0 403 403" fill="none" xmlns="http://www.w3.org/2000/svg">
<g clip-path="url(#clip0_2287_1159)">
<path d="M400.858 11.4251C397.617 4.00406 392.008 0.293063 384.004 0.289062H18.564C10.571 0.289062 4.95404 4.00406 1.71804 11.4251C-1.51596 19.2261 -0.18496 25.8921 5.71704 31.4101L146.474 172.163V310.918C146.474 315.873 148.283 320.15 151.898 323.772L224.983 396.855C228.412 400.469 232.693 402.283 237.834 402.283C240.116 402.282 242.494 401.805 244.969 400.853C252.396 397.616 256.109 392.001 256.109 384.008V172.164L396.861 31.4111C402.765 25.8931 404.093 19.2291 400.858 11.4251Z" fill="#2C3643"/>
</g>
<defs>
<clipPath id="clip0_2287_1159">
<rect width="402.577" height="402.577" fill="white"/>
</clipPath>
</defs>
</svg>
