<svg width="1961" height="530" viewBox="0 0 1961 530" fill="none" xmlns="http://www.w3.org/2000/svg">
<g id="Logo_netflix" clip-path="url(#clip0_120_9)">
<g id="Clip path group">
<mask id="mask0_120_9" style="mask-type:luminance" maskUnits="userSpaceOnUse" x="0" y="0" width="1961" height="530">
<g id="clip0_2287_1123">
<path id="Vector" d="M1961 0H0V530H1961V0Z" fill="white"/>
</g>
</mask>
<g mask="url(#mask0_120_9)">
<g id="Group">
<path id="Vector_2" d="M1856.1 252.28L1961 530C1930.08 525.583 1899.18 520.054 1867.72 515.072L1808.62 361.619L1747.9 502.405C1718.1 497.423 1688.83 495.762 1659.02 491.893L1765.57 248.976L1668.93 0H1758.38L1812.48 139.107L1870.46 0H1960.98L1856.1 252.28ZM1598.3 0H1517.14V481.417C1543.64 483.077 1571.24 484.173 1598.3 487.476V0ZM1447.02 475.887C1373.05 470.923 1299.07 466.524 1223.43 464.845V0H1306.24V386.458C1353.73 387.554 1401.2 391.405 1447.02 393.613V475.887ZM1135.08 188.274V271.077H1021.91V459.333H940.22V0H1172.09V82.8037H1021.93V188.274H1135.08ZM801.077 82.8037V463.75C773.464 463.75 745.321 463.75 718.256 464.845V82.8037H632.679V0H887.185V82.8037H801.077ZM543.25 275.476C506.821 275.476 463.75 275.476 432.833 277.155V400.256C481.417 396.935 530 393.083 579.131 391.423V470.923L350.03 489.155V0H579.113V82.8037H432.833V194.333C464.863 194.333 513.994 192.673 543.25 192.673V275.476ZM84.4467 229.101V518.393C56.2125 521.615 28.0563 525.484 0 530V0H78.9523L186.595 300.899V0H269.417V495.762C240.161 500.744 210.339 502.405 178.875 506.804L84.4467 229.101Z" fill="#E50914"/>
</g>
</g>
</g>
</g>
<defs>
<clipPath id="clip0_120_9">
<rect width="1961" height="530" fill="white"/>
</clipPath>
</defs>
</svg>
