<svg width="445" height="445" viewBox="0 0 445 445" fill="none" xmlns="http://www.w3.org/2000/svg">
<g clip-path="url(#clip0_2287_1163)">
<path d="M213.13 222.409L351.88 83.653C358.93 76.61 362.447 67.996 362.447 57.812C362.447 47.629 358.929 39.019 351.88 31.977L330.471 10.561C323.432 3.521 314.817 0 304.637 0C294.457 0 285.846 3.521 278.796 10.561L92.649 196.425C85.605 203.468 82.083 212.081 82.083 222.266C82.083 237.543 85.604 241.057 92.649 248.103L278.795 433.967C285.845 441.01 294.455 444.531 304.636 444.531C314.817 444.531 323.431 441.01 330.47 433.967L351.879 412.555C358.929 405.516 362.446 396.951 362.446 386.858C362.446 376.773 358.928 368.112 351.879 360.88L213.13 222.409Z" fill="#656565"/>
</g>
<defs>
<clipPath id="clip0_2287_1163">
<rect width="444.531" height="444.531" fill="white"/>
</clipPath>
</defs>
</svg>
