<svg width="349" height="349" viewBox="0 0 349 349" fill="none" xmlns="http://www.w3.org/2000/svg">
<g clip-path="url(#clip0_2287_1161)">
<path d="M336.559 68.6091L231.016 174.163L336.559 279.711C352.258 295.416 352.258 320.856 336.559 336.561C328.715 344.405 318.431 348.33 308.152 348.33C297.856 348.33 287.571 344.411 279.733 336.561L174.167 231.001L68.6095 336.56C60.7666 344.404 50.4816 348.329 40.1936 348.329C29.9087 348.329 19.6307 344.41 11.7807 336.56C-3.91825 320.862 -3.91825 295.421 11.7807 279.71L117.32 174.162L11.7747 68.6091C-3.92425 52.9101 -3.92425 27.4642 11.7747 11.7652C27.4707 -3.92174 52.9016 -3.92174 68.6035 11.7652L174.166 117.319L279.721 11.7652C295.426 -3.92174 320.86 -3.92174 336.553 11.7652C352.258 27.4642 352.258 52.9101 336.559 68.6091Z" fill="#565656"/>
</g>
<defs>
<clipPath id="clip0_2287_1161">
<rect width="348.333" height="348.333" fill="white"/>
</clipPath>
</defs>
</svg>
