<svg width="72" height="72" viewBox="0 0 72 72" fill="none" xmlns="http://www.w3.org/2000/svg">
<path d="M10.7998 15.5969C10.7998 14.3238 11.3055 13.1029 12.2057 12.2028C13.1059 11.3026 14.3268 10.7969 15.5998 10.7969H40.7998C42.0728 10.7969 43.2937 11.3026 44.1939 12.2028C45.0941 13.1029 45.5998 14.3238 45.5998 15.5969V40.7969C45.5998 42.0699 45.0941 43.2908 44.1939 44.191C43.2937 45.0912 42.0728 45.5969 40.7998 45.5969H15.5998C14.3268 45.5969 13.1059 45.0912 12.2057 44.191C11.3055 43.2908 10.7998 42.0699 10.7998 40.7969V15.5969Z" fill="url(#paint0_radial_2287_1165)"/>
<path d="M9.6001 14.4016C9.6001 13.1285 10.1058 11.9076 11.006 11.0075C11.9062 10.1073 13.1271 9.60156 14.4001 9.60156H39.6001C40.8731 9.60156 42.094 10.1073 42.9942 11.0075C43.8944 11.9076 44.4001 13.1285 44.4001 14.4016V39.6016C44.4001 40.8746 43.8944 42.0955 42.9942 42.9957C42.094 43.8958 40.8731 44.4016 39.6001 44.4016H14.4001C13.1271 44.4016 11.9062 43.8958 11.006 42.9957C10.1058 42.0955 9.6001 40.8746 9.6001 39.6016V14.4016Z" fill="url(#paint1_radial_2287_1165)"/>
<path d="M18.5999 21.8969C18.5999 22.4538 18.3787 22.988 17.9848 23.3818C17.591 23.7756 17.0569 23.9969 16.4999 23.9969C15.9429 23.9969 15.4088 23.7756 15.015 23.3818C14.6212 22.988 14.3999 22.4538 14.3999 21.8969C14.3999 21.3399 14.6212 20.8058 15.015 20.412C15.4088 20.0181 15.9429 19.7969 16.4999 19.7969C17.0569 19.7969 17.591 20.0181 17.9848 20.412C18.3787 20.8058 18.5999 21.3399 18.5999 21.8969Z" fill="url(#paint2_radial_2287_1165)"/>
<path d="M39.5999 21.8969C39.5999 22.4538 39.3787 22.988 38.9848 23.3818C38.591 23.7756 38.0569 23.9969 37.4999 23.9969C36.9429 23.9969 36.4088 23.7756 36.015 23.3818C35.6212 22.988 35.3999 22.4538 35.3999 21.8969C35.3999 21.3399 35.6212 20.8058 36.015 20.412C36.4088 20.0181 36.9429 19.7969 37.4999 19.7969C38.0569 19.7969 38.591 20.0181 38.9848 20.412C39.3787 20.8058 39.5999 21.3399 39.5999 21.8969Z" fill="url(#paint3_radial_2287_1165)"/>
<path d="M23.671 29.4536C23.5692 29.3934 23.4566 29.3538 23.3395 29.3371C23.2224 29.3204 23.1032 29.327 22.9887 29.3564C22.8741 29.3858 22.7665 29.4374 22.6719 29.5084C22.5774 29.5794 22.4977 29.6683 22.4375 29.7701C22.3773 29.8719 22.3377 29.9845 22.321 30.1016C22.3043 30.2186 22.3109 30.3379 22.3403 30.4524C22.3697 30.5669 22.4213 30.6746 22.4923 30.7691C22.5633 30.8637 22.6522 30.9434 22.754 31.0036C23.825 31.6386 26.769 32.7786 30.637 32.7786C34.505 32.7786 37.45 31.6386 38.521 31.0036C38.7264 30.882 38.8751 30.6838 38.9343 30.4525C38.9936 30.2213 38.9586 29.976 38.837 29.7706C38.7154 29.5652 38.5172 29.4165 38.2859 29.3572C38.0547 29.298 37.8094 29.333 37.604 29.4546C36.819 29.9196 34.194 30.9786 30.638 30.9786C27.082 30.9786 24.456 29.9186 23.671 29.4536Z" fill="url(#paint4_radial_2287_1165)"/>
<path opacity="0.35" d="M19.2002 44.4016H28.2002L32.4002 27.6016C30.279 28.1799 28.4545 29.5383 27.2922 31.4046L19.2002 44.4016Z" fill="url(#paint5_radial_2287_1165)"/>
<path d="M27.6001 32.4016C27.6001 31.1285 28.1058 29.9076 29.006 29.0075C29.9062 28.1073 31.1271 27.6016 32.4001 27.6016H57.6001C58.8731 27.6016 60.094 28.1073 60.9942 29.0075C61.8944 29.9076 62.4001 31.1285 62.4001 32.4016V57.6016C62.4001 58.8746 61.8944 60.0955 60.9942 60.9957C60.094 61.8958 58.8731 62.4016 57.6001 62.4016H32.4001C31.1271 62.4016 29.9062 61.8958 29.006 60.9957C28.1058 60.0955 27.6001 58.8746 27.6001 57.6016V32.4016Z" fill="url(#paint6_radial_2287_1165)"/>
<path d="M36.5999 39.8969C36.5999 40.1727 36.5456 40.4457 36.44 40.7005C36.3345 40.9553 36.1798 41.1868 35.9848 41.3818C35.7898 41.5768 35.5583 41.7315 35.3035 41.837C35.0488 41.9426 34.7757 41.9969 34.4999 41.9969C34.2241 41.9969 33.951 41.9426 33.6963 41.837C33.4415 41.7315 33.21 41.5768 33.015 41.3818C32.82 41.1868 32.6653 40.9553 32.5598 40.7005C32.4542 40.4457 32.3999 40.1727 32.3999 39.8969C32.3999 39.3399 32.6212 38.8058 33.015 38.412C33.4088 38.0181 33.9429 37.7969 34.4999 37.7969C35.0569 37.7969 35.591 38.0181 35.9848 38.412C36.3787 38.8058 36.5999 39.3399 36.5999 39.8969Z" fill="url(#paint7_radial_2287_1165)"/>
<path d="M57.5999 39.8969C57.5999 40.4538 57.3787 40.988 56.9848 41.3818C56.591 41.7756 56.0569 41.9969 55.4999 41.9969C54.9429 41.9969 54.4088 41.7756 54.015 41.3818C53.6212 40.988 53.3999 40.4538 53.3999 39.8969C53.3999 39.3399 53.6212 38.8058 54.015 38.412C54.4088 38.0181 54.9429 37.7969 55.4999 37.7969C56.0569 37.7969 56.591 38.0181 56.9848 38.412C57.3787 38.8058 57.5999 39.3399 57.5999 39.8969Z" fill="url(#paint8_radial_2287_1165)"/>
<path d="M41.8212 47.6004C41.7195 47.536 41.6058 47.4927 41.487 47.473C41.3682 47.4534 41.2467 47.4577 41.1296 47.4859C41.0125 47.514 40.9023 47.5654 40.8054 47.6369C40.7085 47.7084 40.627 47.7986 40.5656 47.9022C40.5042 48.0058 40.4643 48.1207 40.4481 48.24C40.4319 48.3594 40.4399 48.4807 40.4714 48.5969C40.503 48.7131 40.5576 48.8218 40.6319 48.9166C40.7063 49.0113 40.7989 49.0901 40.9042 49.1484C41.9752 49.7834 44.9192 50.9244 48.7872 50.9244C52.6552 50.9244 55.6002 49.7834 56.6712 49.1484C56.7729 49.0882 56.8618 49.0086 56.9327 48.914C57.0036 48.8195 57.0553 48.7119 57.0846 48.5974C57.1139 48.4829 57.1204 48.3637 57.1037 48.2467C57.087 48.1297 57.0474 48.0171 56.9872 47.9154C56.927 47.8137 56.8474 47.7249 56.7528 47.654C56.6583 47.583 56.5507 47.5314 56.4362 47.5021C56.3217 47.4727 56.2025 47.4662 56.0855 47.4829C55.9685 47.4996 55.8559 47.5392 55.7542 47.5994C54.9692 48.0644 52.3442 49.1244 48.7882 49.1244C45.2322 49.1244 42.6062 48.0654 41.8212 47.6004Z" fill="url(#paint9_radial_2287_1165)"/>
<defs>
<radialGradient id="paint0_radial_2287_1165" cx="0" cy="0" r="1" gradientUnits="userSpaceOnUse" gradientTransform="translate(39.0747 17.6855) rotate(135) scale(32.8097)">
<stop stop-color="#99421D"/>
<stop offset="0.333" stop-color="#99161D"/>
<stop offset="0.667" stop-color="#7D1845"/>
<stop offset="1" stop-color="#59216E"/>
</radialGradient>
<radialGradient id="paint1_radial_2287_1165" cx="0" cy="0" r="1" gradientUnits="userSpaceOnUse" gradientTransform="translate(62.3993 8.70107) rotate(133.87) scale(75.3216)">
<stop stop-color="#FFDCCC"/>
<stop offset="0.333" stop-color="#FFBDC0"/>
<stop offset="0.667" stop-color="#F89DC6"/>
<stop offset="1" stop-color="#E4A1FA"/>
</radialGradient>
<radialGradient id="paint2_radial_2287_1165" cx="0" cy="0" r="1" gradientUnits="userSpaceOnUse" gradientTransform="translate(60.2999 11.0969) rotate(133.939) scale(68.7426 55.9547)">
<stop stop-color="#99421D"/>
<stop offset="0.333" stop-color="#99161D"/>
<stop offset="0.667" stop-color="#7D1845"/>
<stop offset="1" stop-color="#59216E"/>
</radialGradient>
<radialGradient id="paint3_radial_2287_1165" cx="0" cy="0" r="1" gradientUnits="userSpaceOnUse" gradientTransform="translate(60.2999 11.0969) rotate(133.939) scale(68.7426 55.9547)">
<stop stop-color="#99421D"/>
<stop offset="0.333" stop-color="#99161D"/>
<stop offset="0.667" stop-color="#7D1845"/>
<stop offset="1" stop-color="#59216E"/>
</radialGradient>
<radialGradient id="paint4_radial_2287_1165" cx="0" cy="0" r="1" gradientUnits="userSpaceOnUse" gradientTransform="translate(60.2989 11.1043) rotate(133.939) scale(68.7426 55.9548)">
<stop stop-color="#99421D"/>
<stop offset="0.333" stop-color="#99161D"/>
<stop offset="0.667" stop-color="#7D1845"/>
<stop offset="1" stop-color="#59216E"/>
</radialGradient>
<radialGradient id="paint5_radial_2287_1165" cx="0" cy="0" r="1" gradientUnits="userSpaceOnUse" gradientTransform="translate(39.5994 27.901) rotate(135) scale(23.3345)">
<stop stop-color="#FFA984"/>
<stop offset="0.333" stop-color="#FF787F"/>
<stop offset="0.667" stop-color="#F45FA2"/>
<stop offset="1" stop-color="#C44AF1"/>
</radialGradient>
<radialGradient id="paint6_radial_2287_1165" cx="0" cy="0" r="1" gradientUnits="userSpaceOnUse" gradientTransform="translate(61.8008 29.7009) rotate(135) scale(43.2749)">
<stop stop-color="#EF7744"/>
<stop offset="0.333" stop-color="#E50914"/>
<stop offset="0.667" stop-color="#A70D53"/>
<stop offset="1" stop-color="#792A95"/>
</radialGradient>
<radialGradient id="paint7_radial_2287_1165" cx="0" cy="0" r="1" gradientUnits="userSpaceOnUse" gradientTransform="translate(62.1005 11.0982) rotate(137.146) scale(73.6614 60.3576)">
<stop stop-color="#FFDCCC"/>
<stop offset="0.333" stop-color="#FDF6F6"/>
<stop offset="0.667" stop-color="#FADCE9"/>
<stop offset="1" stop-color="#E4A1FA"/>
</radialGradient>
<radialGradient id="paint8_radial_2287_1165" cx="0" cy="0" r="1" gradientUnits="userSpaceOnUse" gradientTransform="translate(62.1005 11.0982) rotate(137.146) scale(73.6614 60.3576)">
<stop stop-color="#FFDCCC"/>
<stop offset="0.333" stop-color="#FDF6F6"/>
<stop offset="0.667" stop-color="#FADCE9"/>
<stop offset="1" stop-color="#E4A1FA"/>
</radialGradient>
<radialGradient id="paint9_radial_2287_1165" cx="0" cy="0" r="1" gradientUnits="userSpaceOnUse" gradientTransform="translate(62.1008 11.0988) rotate(137.146) scale(73.6614 60.3576)">
<stop stop-color="#FFDCCC"/>
<stop offset="0.333" stop-color="#FDF6F6"/>
<stop offset="0.667" stop-color="#FADCE9"/>
<stop offset="1" stop-color="#E4A1FA"/>
</radialGradient>
</defs>
</svg>
