<svg width="24" height="24" viewBox="0 0 24 24" fill="none" xmlns="http://www.w3.org/2000/svg">
<path d="M23.6352 21.8602L17.7187 15.9194C19.2404 14.1762 20.0744 11.9696 20.0734 9.68999C20.0734 4.34701 15.5709 0 10.0367 0C4.50256 0 0 4.34701 0 9.68999C0 15.033 4.50256 19.38 10.0367 19.38C12.1143 19.38 14.0942 18.775 15.7869 17.6265L21.7483 23.6124C21.9974 23.8622 22.3326 24 22.6917 24C23.0317 24 23.3541 23.8749 23.599 23.6474C23.8488 23.4148 23.993 23.096 23.9997 22.761C24.0065 22.426 23.8754 22.102 23.6352 21.8602ZM10.0367 2.52782C14.1273 2.52782 17.4552 5.74069 17.4552 9.68999C17.4552 13.6393 14.1273 16.8522 10.0367 16.8522C5.94611 16.8522 2.61828 13.6393 2.61828 9.68999C2.61828 5.74069 5.94611 2.52782 10.0367 2.52782Z" fill="#2E3644"/>
</svg>
