<svg width="72" height="72" viewBox="0 0 72 72" fill="none" xmlns="http://www.w3.org/2000/svg">
<path fill-rule="evenodd" clip-rule="evenodd" d="M37.1999 53.4031C37.1999 53.0849 37.0735 52.7796 36.8484 52.5546C36.6234 52.3296 36.3182 52.2031 35.9999 52.2031H34.7999C34.4816 52.2031 34.1764 52.3296 33.9514 52.5546C33.7263 52.7796 33.5999 53.0849 33.5999 53.4031V56.2671C33.5999 56.9161 33.0829 57.4471 32.4349 57.4771C30.2996 57.5771 28.1729 57.7861 26.0549 58.1041L19.4439 59.0961C18.8755 59.1814 18.3566 59.4678 17.9815 59.9033C17.6064 60.3387 17.4 60.8944 17.3999 61.4691V62.1021C17.3999 62.1809 17.4154 62.2589 17.4456 62.3317C17.4757 62.4045 17.5199 62.4707 17.5756 62.5264C17.6314 62.5821 17.6975 62.6263 17.7703 62.6565C17.8431 62.6866 17.9211 62.7021 17.9999 62.7021H52.7999C52.959 62.7021 53.1116 62.6389 53.2242 62.5264C53.3367 62.4139 53.3999 62.2613 53.3999 62.1021V61.4691C53.3998 60.8944 53.1934 60.3387 52.8183 59.9033C52.4432 59.4678 51.9243 59.1814 51.3559 59.0961L44.7459 58.1041C42.6313 57.787 40.5018 57.5777 38.3659 57.4771C38.0535 57.4633 37.7584 57.33 37.5414 57.1049C37.3244 56.8797 37.2022 56.5798 37.1999 56.2671V53.4031Z" fill="url(#paint0_radial_2287_1116)"/>
<path d="M18.6001 60.7427C18.6001 60.2347 18.9591 59.7997 19.4601 59.7147C22.0201 59.2817 29.7591 58.0547 35.4001 58.0547C41.0421 58.0547 48.7801 59.2817 51.3401 59.7147C51.8411 59.7997 52.2001 60.2347 52.2001 60.7427C52.2004 60.7807 52.1925 60.8184 52.1767 60.8531C52.161 60.8878 52.1379 60.9186 52.1091 60.9434C52.0803 60.9683 52.0464 60.9865 52.0098 60.9969C51.9731 61.0073 51.9347 61.0096 51.8971 61.0037C50.1221 60.7107 40.9701 59.2437 35.4001 59.2437C29.8301 59.2437 20.6781 60.7117 18.9031 61.0037C18.8655 61.0096 18.8271 61.0073 18.7905 60.9969C18.7538 60.9865 18.7199 60.9683 18.6911 60.9434C18.6623 60.9186 18.6392 60.8878 18.6235 60.8531C18.6078 60.8184 18.5998 60.7807 18.6001 60.7427Z" fill="url(#paint1_radial_2287_1116)"/>
<path d="M63.0002 12H9.0002C8.52281 12 8.06497 12.1896 7.7274 12.5272C7.38984 12.8648 7.2002 13.3226 7.2002 13.8V51.6C7.2002 52.0774 7.38984 52.5352 7.7274 52.8728C8.06497 53.2104 8.52281 53.4 9.0002 53.4H63.0002C63.4776 53.4 63.9354 53.2104 64.273 52.8728C64.6105 52.5352 64.8002 52.0774 64.8002 51.6V13.8C64.8002 13.3226 64.6105 12.8648 64.273 12.5272C63.9354 12.1896 63.4776 12 63.0002 12Z" fill="url(#paint2_linear_2287_1116)"/>
<path d="M63.0002 12H9.0002C8.52281 12 8.06497 12.1896 7.7274 12.5272C7.38984 12.8648 7.2002 13.3226 7.2002 13.8V51.6C7.2002 52.0774 7.38984 52.5352 7.7274 52.8728C8.06497 53.2104 8.52281 53.4 9.0002 53.4H63.0002C63.4776 53.4 63.9354 53.2104 64.273 52.8728C64.6105 52.5352 64.8002 52.0774 64.8002 51.6V13.8C64.8002 13.3226 64.6105 12.8648 64.273 12.5272C63.9354 12.1896 63.4776 12 63.0002 12Z" fill="url(#paint3_radial_2287_1116)"/>
<path fill-rule="evenodd" clip-rule="evenodd" d="M9.0002 12.6H63.0002C63.3185 12.6 63.6237 12.7264 63.8487 12.9515C64.0738 13.1765 64.2002 13.4817 64.2002 13.8V50.4H7.8002V13.8C7.8002 13.6424 7.83123 13.4864 7.89154 13.3408C7.95185 13.1952 8.04024 13.0629 8.15167 12.9515C8.2631 12.84 8.39538 12.7516 8.54098 12.6913C8.68657 12.631 8.84261 12.6 9.0002 12.6ZM7.2002 50.4V13.8C7.2002 13.3226 7.38984 12.8648 7.7274 12.5272C8.06497 12.1896 8.52281 12 9.0002 12H63.0002C63.4776 12 63.9354 12.1896 64.273 12.5272C64.6105 12.8648 64.8002 13.3226 64.8002 13.8V51.6C64.8002 52.0774 64.6105 52.5352 64.273 52.8728C63.9354 53.2104 63.4776 53.4 63.0002 53.4H9.0002C8.52281 53.4 8.06497 53.2104 7.7274 52.8728C7.38984 52.5352 7.2002 52.0774 7.2002 51.6V50.4Z" fill="url(#paint4_radial_2287_1116)"/>
<path d="M35.4001 52.8C36.3941 52.8 37.2001 52.397 37.2001 51.9C37.2001 51.403 36.3941 51 35.4001 51C34.4061 51 33.6001 51.403 33.6001 51.9C33.6001 52.397 34.4061 52.8 35.4001 52.8Z" fill="url(#paint5_radial_2287_1116)"/>
<defs>
<radialGradient id="paint0_radial_2287_1116" cx="0" cy="0" r="1" gradientUnits="userSpaceOnUse" gradientTransform="translate(50.3271 49.377) rotate(118.526) scale(55.1579 46.2871)">
<stop stop-color="#802600"/>
<stop offset="0.333" stop-color="#6F181D"/>
<stop offset="0.667" stop-color="#5B1333"/>
<stop offset="1" stop-color="#391945"/>
</radialGradient>
<radialGradient id="paint1_radial_2287_1116" cx="0" cy="0" r="1" gradientUnits="userSpaceOnUse" gradientTransform="translate(48.1072 53.6171) rotate(158.116) scale(32.7275 42.219)">
<stop stop-color="#99421D"/>
<stop offset="0.333" stop-color="#99161D"/>
<stop offset="0.667" stop-color="#7D1845"/>
<stop offset="1" stop-color="#59216E"/>
</radialGradient>
<linearGradient id="paint2_linear_2287_1116" x1="10.4732" y1="14.957" x2="56.1752" y2="51.481" gradientUnits="userSpaceOnUse">
<stop stop-color="#99161D"/>
<stop offset="0.245" stop-color="#CA005B"/>
<stop offset="0.347" stop-color="#FF479A"/>
<stop offset="0.469" stop-color="#CC3CFF"/>
<stop offset="0.736" stop-color="#BC1A22"/>
<stop offset="1" stop-color="#C94FF5"/>
</linearGradient>
<radialGradient id="paint3_radial_2287_1116" cx="0" cy="0" r="1" gradientUnits="userSpaceOnUse" gradientTransform="translate(38.6182 23.829) rotate(90) scale(25.9571 25.8545)">
<stop stop-color="#1C0E20" stop-opacity="0"/>
<stop offset="1" stop-color="#1C0E20"/>
</radialGradient>
<radialGradient id="paint4_radial_2287_1116" cx="0" cy="0" r="1" gradientUnits="userSpaceOnUse" gradientTransform="translate(54.0002 20.194) rotate(144.293) scale(47.2897 44.8232)">
<stop stop-color="#EF7744"/>
<stop offset="0.333" stop-color="#E50914"/>
<stop offset="0.667" stop-color="#A70D53"/>
<stop offset="1" stop-color="#792A95"/>
</radialGradient>
<radialGradient id="paint5_radial_2287_1116" cx="0" cy="0" r="1" gradientTransform="matrix(-3.24375 3.24374 -3.24375 -3.24374 36.5248 51.357)" gradientUnits="userSpaceOnUse">
<stop stop-color="#FFDCCC"/>
<stop offset="0.333" stop-color="#FFBDC0"/>
<stop offset="0.667" stop-color="#F89DC6"/>
<stop offset="1" stop-color="#E4A1FA"/>
</radialGradient>
</defs>
</svg>
