<svg width="72" height="72" viewBox="0 0 72 72" fill="none" xmlns="http://www.w3.org/2000/svg">
<path d="M24.0502 36.6016L33.6002 46.3896L17.8032 56.8626C17.8032 56.8626 15.8892 57.6976 13.6252 55.2626C11.3612 52.8276 12.1242 51.2376 12.1242 51.2376L24.0502 36.6016Z" fill="url(#paint0_radial_2287_1106)"/>
<path d="M25.0339 34.2031L35.9999 46.1531L25.0619 53.8061C25.0619 53.8061 21.8289 55.1001 18.0989 51.0191C14.3689 46.9381 15.9189 44.5121 15.9189 44.5121L25.0339 34.2031Z" fill="url(#paint1_radial_2287_1106)"/>
<path d="M38.9999 13.0234L59.0999 33.6824L32.5319 50.4174C32.5319 50.4174 28.7459 50.2584 24.3979 45.4934C20.0499 40.7284 21.4099 35.8134 21.4099 35.8134L38.9999 13.0234Z" fill="url(#paint2_radial_2287_1106)"/>
<path d="M57.6701 15.3519C63.1041 21.2809 63.9861 29.2879 59.6391 33.2369C55.2921 37.1859 47.3631 35.5809 41.9291 29.6509C36.4951 23.7209 35.6141 15.7149 39.9611 11.7659C44.3081 7.81693 52.2371 9.42293 57.6711 15.3519" fill="url(#paint3_radial_2287_1106)"/>
<path d="M58.3789 31.2549C54.8119 34.5029 48.2139 33.0819 43.6419 28.0799C39.0699 23.0779 38.2549 16.3899 41.8219 13.1419C45.3889 9.89386 51.9859 11.3149 56.5579 16.3169C61.1299 21.3189 61.9449 28.0069 58.3779 31.2549" fill="url(#paint4_radial_2287_1106)"/>
<path opacity="0.85" d="M59.678 28.8228C60.576 24.1778 59.654 20.5928 56.16 16.6198C52.666 12.6458 47.3499 10.8658 43.78 12.7598C39.371 15.0978 48.373 13.5958 53.458 19.5808C57.826 24.7238 58.852 33.1008 59.678 28.8228Z" fill="url(#paint5_radial_2287_1106)"/>
<path opacity="0.4" d="M50.398 25.2487C50.455 26.7277 49.293 27.7717 47.803 27.5807C46.313 27.3897 45.059 26.0357 45.002 24.5567C44.945 23.0777 46.107 22.0347 47.597 22.2257C49.087 22.4167 50.342 23.7697 50.398 25.2487Z" fill="url(#paint6_radial_2287_1106)"/>
<path opacity="0.6" d="M36.9222 21.0078L26.4262 34.3668C26.3302 36.4638 28.2902 39.5568 30.0332 40.8378L41.2342 29.9138C39.6002 28.2038 36.9592 24.1058 36.9222 21.0078Z" fill="url(#paint7_radial_2287_1106)"/>
<path fill-rule="evenodd" clip-rule="evenodd" d="M20.0581 9.60156L21.4791 11.7186L24.0001 11.0646L22.3581 13.0266L23.7781 15.1436L21.3421 14.2396L19.7001 16.2016L19.8371 13.6806L17.4001 12.7756L19.9201 12.1226L20.0581 9.60156ZM58.7761 52.8016L58.9621 56.4676L62.4001 57.4176L59.0771 58.7346L59.2641 62.4016L57.0241 59.5476L53.7011 60.8636L55.6401 57.7836L53.4001 54.9306L56.8381 55.8806L58.7761 52.8016ZM15.2061 24.2096L15.8761 21.0016L13.4791 23.1956L10.6851 21.5556L11.9981 24.5526L9.6001 26.7476L12.8091 26.4046L14.1211 29.4016L14.7911 26.1926L18.0001 25.8496L15.2061 24.2096Z" fill="url(#paint8_linear_2287_1106)"/>
<defs>
<radialGradient id="paint0_radial_2287_1106" cx="0" cy="0" r="1" gradientUnits="userSpaceOnUse" gradientTransform="translate(36.6876 32.7011) rotate(135) scale(34.9134)">
<stop stop-color="#99421D"/>
<stop offset="0.333" stop-color="#99161D"/>
<stop offset="0.667" stop-color="#7D1845"/>
<stop offset="1" stop-color="#59216E"/>
</radialGradient>
<radialGradient id="paint1_radial_2287_1106" cx="0" cy="0" r="1" gradientUnits="userSpaceOnUse" gradientTransform="translate(42.5939 27.3031) rotate(135) scale(44.5477 44.5279)">
<stop stop-color="#EF7744"/>
<stop offset="0.333" stop-color="#E50914"/>
<stop offset="0.667" stop-color="#A70D53"/>
<stop offset="1" stop-color="#792A95"/>
</radialGradient>
<radialGradient id="paint2_radial_2287_1106" cx="0" cy="0" r="1" gradientUnits="userSpaceOnUse" gradientTransform="translate(42.3003 29.1101) rotate(135) scale(31.8127)">
<stop stop-color="#FB540D"/>
<stop offset="0.333" stop-color="#E50914"/>
<stop offset="0.667" stop-color="#A70D53"/>
<stop offset="1" stop-color="#792A95"/>
</radialGradient>
<radialGradient id="paint3_radial_2287_1106" cx="0" cy="0" r="1" gradientUnits="userSpaceOnUse" gradientTransform="translate(57.6741 14.7082) rotate(134.326) scale(24.0433 24.0367)">
<stop stop-color="#FFDCCC"/>
<stop offset="0.333" stop-color="#FFBDC0"/>
<stop offset="0.667" stop-color="#F89DC6"/>
<stop offset="1" stop-color="#E4A1FA"/>
</radialGradient>
<radialGradient id="paint4_radial_2287_1106" cx="0" cy="0" r="1" gradientUnits="userSpaceOnUse" gradientTransform="translate(52.1305 21.2722) rotate(141.875) scale(9.87138 12.8159)">
<stop offset="0.307" stop-color="#F89DC6"/>
<stop offset="0.645" stop-color="#E75094"/>
<stop offset="1" stop-color="#59216E"/>
</radialGradient>
<radialGradient id="paint5_radial_2287_1106" cx="0" cy="0" r="1" gradientUnits="userSpaceOnUse" gradientTransform="translate(55.8017 15.6) rotate(135) scale(13.1522)">
<stop stop-color="white"/>
<stop offset="1" stop-color="white" stop-opacity="0"/>
</radialGradient>
<radialGradient id="paint6_radial_2287_1106" cx="0" cy="0" r="1" gradientUnits="userSpaceOnUse" gradientTransform="translate(49.2365 22.9683) rotate(131.079) scale(5.08644 6.006)">
<stop stop-color="white"/>
<stop offset="1" stop-color="white" stop-opacity="0"/>
</radialGradient>
<radialGradient id="paint7_radial_2287_1106" cx="0" cy="0" r="1" gradientUnits="userSpaceOnUse" gradientTransform="translate(36.8747 29.1393) rotate(137.622) scale(13.5764)">
<stop stop-color="#FFA984"/>
<stop offset="1" stop-color="#F7636B" stop-opacity="0"/>
</radialGradient>
<linearGradient id="paint8_linear_2287_1106" x1="44.6501" y1="27.9016" x2="24.2501" y2="48.3016" gradientUnits="userSpaceOnUse">
<stop stop-color="#EF7744"/>
<stop offset="0.333" stop-color="#E50914"/>
<stop offset="0.667" stop-color="#A70D53"/>
<stop offset="1" stop-color="#792A95"/>
</linearGradient>
</defs>
</svg>
