<svg width="281" height="445" viewBox="0 0 281 445" fill="none" xmlns="http://www.w3.org/2000/svg">
<g clip-path="url(#clip0_2287_1131)">
<path d="M131.047 222.409L269.797 83.653C276.847 76.61 280.364 67.996 280.364 57.812C280.364 47.629 276.846 39.019 269.797 31.977L248.388 10.561C241.349 3.521 232.734 0 222.554 0C212.374 0 203.763 3.521 196.713 10.561L10.566 196.425C3.522 203.468 0 212.081 0 222.266C0 237.543 3.521 241.057 10.566 248.103L196.712 433.967C203.762 441.01 212.372 444.531 222.553 444.531C232.734 444.531 241.348 441.01 248.387 433.967L269.796 412.555C276.846 405.516 280.363 396.951 280.363 386.858C280.363 376.773 276.845 368.112 269.796 360.88L131.047 222.409Z" fill="#656565"/>
</g>
<defs>
<clipPath id="clip0_2287_1131">
<rect width="280.364" height="444.531" fill="white"/>
</clipPath>
</defs>
</svg>
