<svg width="111" height="30" viewBox="0 0 111 30" fill="none" xmlns="http://www.w3.org/2000/svg">
<g clip-path="url(#clip0_2287_1123)">
<path d="M105.062 14.28L111 30C109.25 29.75 107.501 29.437 105.72 29.155L102.375 20.469L98.938 28.438C97.251 28.156 95.594 28.062 93.907 27.843L99.938 14.093L94.468 0H99.531L102.593 7.874L105.875 0H110.999L105.062 14.28ZM90.47 0H85.876V27.25C87.376 27.344 88.938 27.406 90.47 27.593V0ZM81.907 26.937C77.72 26.656 73.532 26.407 69.251 26.312V0H73.938V21.875C76.626 21.937 79.313 22.155 81.907 22.28V26.937ZM64.25 10.657V15.344H57.844V26H53.22V0H66.345V4.687H57.845V10.657H64.25ZM45.344 4.687V26.25C43.781 26.25 42.188 26.25 40.656 26.312V4.687H35.812V0H50.218V4.687H45.344ZM30.75 15.593C28.688 15.593 26.25 15.593 24.5 15.688V22.656C27.25 22.468 30 22.25 32.781 22.156V26.656L19.813 27.688V0H32.78V4.687H24.5V11C26.313 11 29.094 10.906 30.75 10.906V15.593ZM4.78 12.968V29.343C3.18184 29.5254 1.58809 29.7444 0 30L0 0H4.469L10.562 17.032V0H15.25V28.062C13.594 28.344 11.906 28.438 10.125 28.687L4.78 12.968Z" fill="black"/>
</g>
<defs>
<clipPath id="clip0_2287_1123">
<rect width="111" height="30" fill="white"/>
</clipPath>
</defs>
</svg>
